<svg xmlns="http://www.w3.org/2000/svg" width="1304" height="512" viewBox="0 0 1304 512" fill="none"><path d="M176 116H104V396H176" fill="none" stroke="#252525" stroke-width="56" stroke-linecap="butt" stroke-linejoin="miter"/><rect x="236" y="128" width="200" height="56" fill="#24d05a"/><rect x="236" y="228" width="148" height="56" fill="#eb4888"/><rect x="236" y="328" width="176" height="56" fill="#10a2f5"/><path d="M635.5 308.2H634.3Q619.3 337.0 586.6 337.0Q558.1 337.0 542.05 315.54999999999995Q526.0 294.09999999999997 526.0 256.0Q526.0 217.89999999999998 542.05 196.45Q558.1 174.99999999999997 586.6 174.99999999999997Q619.3 174.99999999999997 634.3 203.79999999999998H635.5V111.39999999999998H659.5V333.4H635.5ZM635.5 283.9V228.09999999999997Q635.5 213.09999999999997 624.1 204.7Q612.7 196.29999999999998 595.9 196.29999999999998Q575.2 196.29999999999998 563.5 208.89999999999998Q551.8 221.5 551.8 242.79999999999998V269.2Q551.8 290.5 563.5 303.1Q575.2 315.7 595.9 315.7Q612.7 315.7 624.1 307.29999999999995Q635.5 298.9 635.5 283.9Z M708.1 256.29999999999995Q708.1 232.0 717.1 213.55Q726.1 195.1 742.1500000000001 185.04999999999998Q758.2 174.99999999999997 779.2 174.99999999999997Q799.6 174.99999999999997 815.2 184.74999999999997Q830.8 194.49999999999997 839.3499999999999 211.59999999999997Q847.9 228.7 847.9 250.59999999999997V262.0H733.3V269.2Q733.3 289.9 746.2 303.09999999999997Q759.1 316.29999999999995 780.7 316.29999999999995Q796.0 316.29999999999995 807.4 309.25Q818.8 302.2 825.1 289.29999999999995L842.8 301.29999999999995Q835.6 317.5 819.25 327.25Q802.9 337.0 780.7 337.0Q758.8 337.0 742.3 327.1Q725.8 317.2 716.95 298.9Q708.1 280.59999999999997 708.1 256.29999999999995ZM733.3 241.89999999999998V244.0H822.1V240.7Q822.1 220.29999999999998 810.25 207.54999999999998Q798.4 194.79999999999998 779.2 194.79999999999998Q766.3 194.79999999999998 755.8 200.95Q745.3 207.09999999999997 739.3 217.89999999999998Q733.3 228.7 733.3 241.89999999999998Z M888.1 256.29999999999995Q888.1 232.0 897.1 213.55Q906.1 195.1 922.1500000000001 185.04999999999998Q938.2 174.99999999999997 959.2 174.99999999999997Q979.6 174.99999999999997 995.2 184.74999999999997Q1010.8 194.49999999999997 1019.35 211.59999999999997Q1027.9 228.7 1027.9 250.59999999999997V262.0H913.3V269.2Q913.3 289.9 926.2 303.09999999999997Q939.1 316.29999999999995 960.7 316.29999999999995Q976.0 316.29999999999995 987.4 309.25Q998.8 302.2 1005.1 289.29999999999995L1022.8 301.29999999999995Q1015.6 317.5 999.25 327.25Q982.9 337.0 960.7 337.0Q938.8 337.0 922.3 327.1Q905.8 317.2 896.95 298.9Q888.1 280.59999999999997 888.1 256.29999999999995ZM913.3 241.89999999999998V244.0H1002.1V240.7Q1002.1 220.29999999999998 990.25 207.54999999999998Q978.4 194.79999999999998 959.2 194.79999999999998Q946.3 194.79999999999998 935.8 200.95Q925.3 207.09999999999997 919.3 217.89999999999998Q913.3 228.7 913.3 241.89999999999998Z M1175.5 308.2H1174.3Q1159.3 337.0 1126.6 337.0Q1098.1 337.0 1082.05 315.54999999999995Q1066.0 294.09999999999997 1066.0 256.0Q1066.0 217.89999999999998 1082.05 196.45Q1098.1 174.99999999999997 1126.6 174.99999999999997Q1159.3 174.99999999999997 1174.3 203.79999999999998H1175.5V111.39999999999998H1199.5V333.4H1175.5ZM1175.5 283.9V228.09999999999997Q1175.5 213.09999999999997 1164.1 204.7Q1152.7 196.29999999999998 1135.9 196.29999999999998Q1115.2 196.29999999999998 1103.5 208.89999999999998Q1091.8 221.5 1091.8 242.79999999999998V269.2Q1091.8 290.5 1103.5 303.1Q1115.2 315.7 1135.9 315.7Q1152.7 315.7 1164.1 307.29999999999995Q1175.5 298.9 1175.5 283.9Z" fill="#252525"/></svg>
